<svg width="210" height="95" viewBox="0 0 210 95" fill="none" xmlns="http://www.w3.org/2000/svg">
<path d="M28.5957 39.9192L37.8187 8.97694C38.7533 5.84135 42.7151 5.51677 44.618 8.42982L60.6384 32.9256C61.4301 33.9448 61.6815 35.2834 61.3133 36.5204C60.9452 37.7574 60.0028 38.7408 58.7826 39.1613L33.5392 45.6031C30.543 46.3679 27.6611 43.0548 28.5957 39.9192Z" fill="#D9B68F"/>
<path d="M42.1853 46.243L26.5275 15.6222C25.7978 14.1939 25.9297 12.4772 26.8692 11.1772C27.8086 9.87723 29.3972 9.21316 30.9823 9.45777L60.0001 13.9363C61.3554 14.1455 62.5278 14.9927 63.1518 16.2138C63.7758 17.4349 63.7756 18.8813 63.1512 20.1022L49.7838 46.2444C49.052 47.6685 47.5852 48.5637 45.9841 48.5634C44.383 48.5631 42.9165 47.6673 42.1853 46.243V46.243Z" fill="#896E4C"/>
<path d="M58.3899 25.6601C58.8209 18.9485 54.0145 13.0116 47.3678 11.9857V11.9857C45.606 11.7138 43.7971 11.8132 42.0767 12.2803L39.4026 13.0064C32.9723 14.7524 29.7776 21.9727 32.8103 27.9056V27.9056C33.601 29.4524 34.7634 30.7787 36.1932 31.7654L50.6149 41.717V41.717C51.2505 42.1507 52.063 41.7877 52.4133 41.1026L56.8558 32.4149C57.6859 30.7916 58.1745 29.0153 58.2913 27.1958L58.3899 25.6601Z" fill="#F2EBC4"/>
<path d="M150.363 22.7259C152.22 22.7259 153.726 21.2203 153.726 19.363C153.726 17.5056 152.22 16 150.363 16C148.506 16 147 17.5056 147 19.363C147 21.2203 148.506 22.7259 150.363 22.7259Z" fill="black"/>
<path d="M82.3656 23.896C83.3896 23.896 84.2936 24.104 85.0776 24.52C85.8776 24.92 86.5016 25.544 86.9496 26.392C87.4136 27.224 87.6456 28.296 87.6456 29.608V37H83.9016V30.184C83.9016 29.144 83.6856 28.376 83.2536 27.88C82.8216 27.384 82.2136 27.136 81.4296 27.136C80.8856 27.136 80.3976 27.264 79.9656 27.52C79.5336 27.76 79.1976 28.128 78.9576 28.624C78.7176 29.12 78.5976 29.752 78.5976 30.52V37H74.8536V30.184C74.8536 29.144 74.6376 28.376 74.2056 27.88C73.7896 27.384 73.1896 27.136 72.4056 27.136C71.8616 27.136 71.3736 27.264 70.9416 27.52C70.5096 27.76 70.1736 28.128 69.9336 28.624C69.6936 29.12 69.5736 29.752 69.5736 30.52V37H65.8296V24.088H69.4056V27.616L68.7336 26.584C69.1816 25.704 69.8136 25.04 70.6296 24.592C71.4616 24.128 72.4056 23.896 73.4616 23.896C74.6456 23.896 75.6776 24.2 76.5576 24.808C77.4536 25.4 78.0456 26.312 78.3336 27.544L77.0136 27.184C77.4456 26.176 78.1336 25.376 79.0776 24.784C80.0376 24.192 81.1336 23.896 82.3656 23.896ZM98.8494 23.896C99.8734 23.896 100.785 24.104 101.585 24.52C102.401 24.92 103.041 25.544 103.505 26.392C103.969 27.224 104.201 28.296 104.201 29.608V37H100.457V30.184C100.457 29.144 100.225 28.376 99.7614 27.88C99.3134 27.384 98.6734 27.136 97.8414 27.136C97.2494 27.136 96.7134 27.264 96.2334 27.52C95.7694 27.76 95.4014 28.136 95.1294 28.648C94.8734 29.16 94.7454 29.816 94.7454 30.616V37H91.0014V24.088H94.5774V27.664L93.9054 26.584C94.3694 25.72 95.0334 25.056 95.8974 24.592C96.7614 24.128 97.7454 23.896 98.8494 23.896ZM107.595 37V24.088H111.339V37H107.595ZM109.467 22.288C108.779 22.288 108.219 22.088 107.787 21.688C107.355 21.288 107.139 20.792 107.139 20.2C107.139 19.608 107.355 19.112 107.787 18.712C108.219 18.312 108.779 18.112 109.467 18.112C110.155 18.112 110.715 18.304 111.147 18.688C111.579 19.056 111.795 19.536 111.795 20.128C111.795 20.752 111.579 21.272 111.147 21.688C110.731 22.088 110.171 22.288 109.467 22.288ZM117.766 37L113.11 24.088H116.638L120.502 35.2H118.822L122.854 24.088H126.022L129.934 35.2H128.254L132.238 24.088H135.55L130.87 37H127.246L123.814 27.472H124.918L121.366 37H117.766ZM137.291 37V24.088H140.867V27.736L140.363 26.68C140.747 25.768 141.363 25.08 142.211 24.616C143.059 24.136 144.091 23.896 145.307 23.896V27.352C145.147 27.336 145.003 27.328 144.875 27.328C144.747 27.312 144.611 27.304 144.467 27.304C143.443 27.304 142.611 27.6 141.971 28.192C141.347 28.768 141.035 29.672 141.035 30.904V37H137.291Z" fill="black"/>
</svg>
